<svg xmlns="http://www.w3.org/2000/svg" width="390px" height="390px" viewBox="0 0 78 78" xmlns:xlink="http://www.w3.org/1999/xlink" version="1.1"><g id="qr-qrcode" transform="translate(0,0)"><defs><linearGradient id="g_color1" gradientUnits="objectBoundingBox" x1="0" y1="0" x2="1" y2="0"><stop offset="5%" stop-color="#fff"/><stop offset="95%" stop-color="#F2D2EC"/></linearGradient><linearGradient id="g_color2" gradientUnits="objectBoundingBox" x1="0" y1="1" x2="1" y2="0"><stop offset="5%" stop-color="#CF0E22"/><stop offset="95%" stop-color="#F80007"/></linearGradient><linearGradient id="g_color5" gradientUnits="objectBoundingBox" x1="0" y1="0" x2="1" y2="1"><stop offset="5%" stop-color="#553B6F"/><stop offset="95%" stop-color="#970B5D"/></linearGradient><linearGradient id="g_color6" gradientUnits="objectBoundingBox" x1="0" y1="0" x2="0" y2="1"><stop offset="5%" stop-color="#2E6E63"/><stop offset="95%" stop-color="#711D71"/></linearGradient><linearGradient id="g_color4" gradientUnits="objectBoundingBox" x1="0" y1="0" x2="0" y2="1"><stop offset="5%" stop-color="#359931"/><stop offset="95%" stop-color="#E31903"/></linearGradient></defs><rect fill="url(#g_color1)" width="78px" height="78px" x="0" y="0" class="qr-bg"/><g id="qr-image_bg"/><path id="p0" class="q-sq" d="M 2 2L 16 2L 16 16L 2 16L 2 2M 4.333333333333333 4 C 4.333333333333333 4 3.9999999999999996 4 3.9999999999999996 4.333333333333333 L 4 13.666666666666666 C 4 13.666666666666666 4 14 4.333333333333333 14 L 13.666666666666666 14 C 13.666666666666666 14 14 14 14 13.666666666666666 L 14 4.333333333333333 C 14 4.333333333333333 14 3.9999999999999996 13.666666666666666 3.9999999999999996 L 4.333333333333333 4 z" stroke-width="0" fill="url(#g_color6)"/><path id="p1" d="M 18 2L 24 2L 24 4L 22.333333333333332 4 C 22.333333333333332 4 22 4 22 4.333333333333333 L 22 5.666666666666667 C 22 5.666666666666667 22 6 22.333333333333332 6 L 24 6L 24 8L 22.333333333333332 8 C 22.333333333333332 8 22 8 22 8.333333333333334 L 22 9.666666666666666 C 22 9.666666666666666 22 10 22.333333333333332 10 L 24 10L 24 11.666666666666666 C 24 11.666666666666666 24 12 24.333333333333332 12 L 25.666666666666668 12 C 25.666666666666668 12 26 12 26 11.666666666666666 L 26 8L 27.666666666666668 8 C 27.666666666666668 8 28 8 28 7.666666666666667 L 28 6.333333333333333 C 28 6.333333333333333 28 6 27.666666666666668 6 L 26 6L 26 4L 28 4L 28 5.666666666666667 C 28 5.666666666666667 28 6 28.333333333333332 6 L 29.666666666666668 6 C 29.666666666666668 6 30 6 30 5.666666666666667 L 30 4L 32 4L 32 5.666666666666667 C 32 5.666666666666667 32 6 32.333333333333336 6 L 33.666666666666664 6 C 33.666666666666664 6 34 6 34 5.666666666666667 L 34 4L 37.666666666666664 4 C 37.666666666666664 4 38 4 38 3.6666666666666665 L 38 2L 40 2L 40 6L 38.333333333333336 6 C 38.333333333333336 6 38 6 38 6.333333333333333 L 38 7.666666666666667 C 38 7.666666666666667 38 8 38.333333333333336 8 L 42 8L 42 9.666666666666666 C 42 9.666666666666666 42 10 42.333333333333336 10 L 43.666666666666664 10 C 43.666666666666664 10 44 10 44 9.666666666666666 L 44 8L 46 8L 46 10L 44.333333333333336 10 C 44.333333333333336 10 44 10 44 10.333333333333334 L 44 12L 42.333333333333336 12 C 42.333333333333336 12 42 12 42 12.333333333333334 L 42 13.666666666666666 C 42 13.666666666666666 42 14 42.333333333333336 14 L 44 14L 44 17.666666666666668 C 44 17.666666666666668 44 18 44.333333333333336 18 L 46 18L 46 20L 44.333333333333336 20 C 44.333333333333336 20 44 20 44 20.333333333333332 L 44 25.666666666666668 C 44 25.666666666666668 44 26 44.333333333333336 26 L 46 26L 46 29.666666666666668 C 46 29.666666666666668 46 30 46.333333333333336 30 L 47.666666666666664 30 C 47.666666666666664 30 48 30 48 29.666666666666668 L 48 28L 50 28L 50 29.666666666666668 C 50 29.666666666666668 50 30 50.333333333333336 30 L 51.666666666666664 30 C 51.666666666666664 30 52 30 52 29.666666666666668 L 52 26L 53.666666666666664 26 C 53.666666666666664 26 54 26 54 25.666666666666668 L 54 24.333333333333332 C 54 24.333333333333332 54 24 53.666666666666664 24 L 50.333333333333336 24 C 50.333333333333336 24 50 24 50 24.333333333333332 L 50 26L 48 26L 48 24L 49.666666666666664 24 C 49.666666666666664 24 50 24 50 23.666666666666668 L 50 22.333333333333332 C 50 22.333333333333332 50 22 49.666666666666664 22 L 48 22L 48 16.333333333333332 C 48 16.333333333333332 48 15.999999999999998 47.666666666666664 15.999999999999998 L 46 16L 46 12L 47.666666666666664 12 C 47.666666666666664 12 48 12 48 11.666666666666666 L 48 8L 56 8L 56 10L 50.333333333333336 10 C 50.333333333333336 10 50 10 50 10.333333333333334 L 50 11.666666666666666 C 50 11.666666666666666 50 12 50.333333333333336 12 L 52 12L 52 18L 50.333333333333336 18 C 50.333333333333336 18 50 18 50 18.333333333333332 L 50 21.666666666666668 C 50 21.666666666666668 50 22 50.333333333333336 22 L 51.666666666666664 22 C 51.666666666666664 22 52 22 52 21.666666666666668 L 52 20L 59.666666666666664 20 C 59.666666666666664 20 60 20 60 19.666666666666668 L 60 18.333333333333332 C 60 18.333333333333332 60 18 59.666666666666664 18 L 58 18L 58 14.333333333333334 C 58 14.333333333333334 58 14 57.666666666666664 14 L 56.333333333333336 14 C 56.333333333333336 14 56 14 56 14.333333333333334 L 56 18L 54 18L 54 14L 55.666666666666664 14 C 55.666666666666664 14 56 14 56 13.666666666666666 L 56 12L 60 12L 60 17.666666666666668 C 60 17.666666666666668 60 18 60.333333333333336 18 L 66 18L 66 20L 64.33333333333333 20 C 64.33333333333333 20 63.99999999999999 20 63.99999999999999 20.333333333333332 L 64 21.666666666666668 C 64 21.666666666666668 64 22 64.33333333333333 22 L 66 22L 66 23.666666666666668 C 66 23.666666666666668 66 24 66.33333333333333 24 L 68 24L 68 25.666666666666668 C 68 25.666666666666668 68 26 68.33333333333333 26 L 71.66666666666667 26 C 71.66666666666667 26 72 26 72 25.666666666666668 L 72 22L 76 22L 76 24L 74.33333333333333 24 C 74.33333333333333 24 74 24 74 24.333333333333332 L 74 25.666666666666668 C 74 25.666666666666668 74 26 74.33333333333333 26 L 76 26L 76 28L 74 28L 74 26.333333333333332 C 74 26.333333333333332 74 26 73.66666666666667 26 L 72.33333333333333 26 C 72.33333333333333 26 72 26 72 26.333333333333332 L 72 30L 70.33333333333333 30 C 70.33333333333333 30 70 30 70 30.333333333333332 L 70 32L 68.33333333333333 32 C 68.33333333333333 32 68 32 68 32.333333333333336 L 68 36L 66.33333333333333 36 C 66.33333333333333 36 66 36 66 36.333333333333336 L 66 40L 64.33333333333333 40 C 64.33333333333333 40 63.99999999999999 40 63.99999999999999 40.333333333333336 L 64 41.666666666666664 C 64 41.666666666666664 64 42 64.33333333333333 42 L 71.66666666666667 42 C 71.66666666666667 42 72 42 72 41.666666666666664 L 72 40.333333333333336 C 72 40.333333333333336 72 40 71.66666666666667 40 L 68 40L 68 38L 69.66666666666667 38 C 69.66666666666667 38 70 38 70 37.666666666666664 L 70 34L 71.66666666666667 34 C 71.66666666666667 34 72 34 72 33.666666666666664 L 72 32L 73.66666666666667 32 C 73.66666666666667 32 74 32 74 31.666666666666668 L 74 30L 76 30L 76 32L 74.33333333333333 32 C 74.33333333333333 32 74 32 74 32.333333333333336 L 74 33.666666666666664 C 74 33.666666666666664 74 34 74.33333333333333 34 L 76 34L 76 36L 72.33333333333333 36 C 72.33333333333333 36 72 36 72 36.333333333333336 L 72 37.666666666666664 C 72 37.666666666666664 72 38 72.33333333333333 38 L 76 38L 76 44L 72.33333333333333 44 C 72.33333333333333 44 72 44 72 44.333333333333336 L 72 45.666666666666664 C 72 45.666666666666664 72 46 72.33333333333333 46 L 76 46L 76 48L 70 48L 70 44.333333333333336 C 70 44.333333333333336 70 44 69.66666666666667 44 L 66.33333333333333 44 C 66.33333333333333 44 66 44 66 44.333333333333336 L 66 46L 64 46L 64 44.333333333333336 C 64 44.333333333333336 64 44 63.666666666666664 44 L 60 44L 60 42L 61.666666666666664 42 C 61.666666666666664 42 62 42 62 41.666666666666664 L 62 40.333333333333336 C 62 40.333333333333336 62 40 61.666666666666664 40 L 60 40L 60 38.333333333333336 C 60 38.333333333333336 60 38 59.666666666666664 38 L 58.333333333333336 38 C 58.333333333333336 38 58 38 58 38.333333333333336 L 58 40L 56.333333333333336 40 C 56.333333333333336 40 56 40 56 40.333333333333336 L 56 41.666666666666664 C 56 41.666666666666664 56 42 56.333333333333336 42 L 58 42L 58 44L 54.333333333333336 44 C 54.333333333333336 44 54 44 54 44.333333333333336 L 54 45.666666666666664 C 54 45.666666666666664 54 46 54.333333333333336 46 L 58 46L 58 48L 54.333333333333336 48 C 54.333333333333336 48 54 48 54 48.333333333333336 L 54 49.666666666666664 C 54 49.666666666666664 54 50 54.333333333333336 50 L 56 50L 56 51.666666666666664 C 56 51.666666666666664 56 52 56.333333333333336 52 L 57.666666666666664 52 C 57.666666666666664 52 58 52 58 51.666666666666664 L 58 50L 62 50L 62 51.666666666666664 C 62 51.666666666666664 62 52 62.333333333333336 52 L 63.666666666666664 52 C 63.666666666666664 52 64 52 64 51.666666666666664 L 64 48L 66 48L 66 49.666666666666664 C 66 49.666666666666664 66 50 66.33333333333333 50 L 72 50L 72 52L 70.33333333333333 52 C 70.33333333333333 52 70 52 70 52.333333333333336 L 70 53.666666666666664 C 70 53.666666666666664 70 54 70.33333333333333 54 L 76 54L 76 56L 68.33333333333333 56 C 68.33333333333333 56 68 56 68 56.333333333333336 L 68 57.666666666666664 C 68 57.666666666666664 68 58 68.33333333333333 58 L 74 58L 74 61.666666666666664 C 74 61.666666666666664 74 62 74.33333333333333 62 L 76 62L 76 64L 74.33333333333333 64 C 74.33333333333333 64 74 64 74 64.33333333333333 L 74 65.66666666666667 C 74 65.66666666666667 74 66 74.33333333333333 66 L 76 66L 76 68L 70 68L 70 66L 71.66666666666667 66 C 71.66666666666667 66 72 66 72 65.66666666666667 L 72 60.333333333333336 C 72 60.333333333333336 72 60 71.66666666666667 60 L 68.33333333333333 60 C 68.33333333333333 60 68 60 68 60.333333333333336 L 68 61.666666666666664 C 68 61.666666666666664 68 62 68.33333333333333 62 L 70 62L 70 64L 68.33333333333333 64 C 68.33333333333333 64 68 64 68 64.33333333333333 L 68 69.66666666666667 C 68 69.66666666666667 68 70 68.33333333333333 70 L 72 70L 72 72L 68 72L 68 70.33333333333333 C 68 70.33333333333333 68 70 67.66666666666667 70 L 66 70L 66 68.33333333333333 C 66 68.33333333333333 66 68 65.66666666666667 68 L 64.33333333333333 68 C 64.33333333333333 68 63.99999999999999 68 63.99999999999999 68.33333333333333 L 64 70L 62.333333333333336 70 C 62.333333333333336 70 62 70 62 70.33333333333333 L 62 71.66666666666667 C 62 71.66666666666667 62 72 62.333333333333336 72 L 66 72L 66 73.66666666666667 C 66 73.66666666666667 66 74 66.33333333333333 74 L 73.66666666666667 74 C 73.66666666666667 74 74 74 74 73.66666666666667 L 74 70L 76 70L 76 76L 60 76L 60 74.33333333333333 C 60 74.33333333333333 60 74 59.666666666666664 74 L 56 74L 56 72.33333333333333 C 56 72.33333333333333 56 72 55.666666666666664 72 L 54 72L 54 70L 56 70L 56 71.66666666666667 C 56 71.66666666666667 56 72 56.333333333333336 72 L 59.666666666666664 72 C 59.666666666666664 72 60 72 60 71.66666666666667 L 60 70L 61.666666666666664 70 C 61.666666666666664 70 62 70 62 69.66666666666667 L 62 68.33333333333333 C 62 68.33333333333333 62 68 61.666666666666664 68 L 56 68L 56 66.33333333333333 C 56 66.33333333333333 56 66 55.666666666666664 66 L 54.333333333333336 66 C 54.333333333333336 66 54 66 54 66.33333333333333 L 54 68L 52.333333333333336 68 C 52.333333333333336 68 52 68 52 68.33333333333333 L 52 70L 50 70L 50 68.33333333333333 C 50 68.33333333333333 50 68 49.666666666666664 68 L 48 68L 48 66.33333333333333 C 48 66.33333333333333 48 66 47.666666666666664 66 L 46.333333333333336 66 C 46.333333333333336 66 46 66 46 66.33333333333333 L 46 68L 44 68L 44 64.33333333333333 C 44 64.33333333333333 44 63.99999999999999 43.666666666666664 63.99999999999999 L 42 64L 42 62L 43.666666666666664 62 C 43.666666666666664 62 44 62 44 61.666666666666664 L 44 58.333333333333336 C 44 58.333333333333336 44 58 43.666666666666664 58 L 38.333333333333336 58 C 38.333333333333336 58 38 58 38 58.333333333333336 L 38 59.666666666666664 C 38 59.666666666666664 38 60 38.333333333333336 60 L 40 60L 40 65.66666666666667 C 40 65.66666666666667 40 66 40.333333333333336 66 L 42 66L 42 68L 40 68L 40 66.33333333333333 C 40 66.33333333333333 40 66 39.666666666666664 66 L 32.333333333333336 66 C 32.333333333333336 66 32 66 32 66.33333333333333 L 32 69.66666666666667 C 32 69.66666666666667 32 70 32.333333333333336 70 L 36 70L 36 72L 28 72L 28 70.33333333333333 C 28 70.33333333333333 28 70 27.666666666666668 70 L 26 70L 26 66L 28 66L 28 67.66666666666667 C 28 67.66666666666667 28 68 28.333333333333332 68 L 29.666666666666668 68 C 29.666666666666668 68 30 68 30 67.66666666666667 L 30 60L 31.666666666666668 60 C 31.666666666666668 60 32 60 32 59.666666666666664 L 32 58.333333333333336 C 32 58.333333333333336 32 58 31.666666666666668 58 L 30 58L 30 54.333333333333336 C 30 54.333333333333336 30 54 29.666666666666668 54 L 28 54L 28 50.333333333333336 C 28 50.333333333333336 28 50 27.666666666666668 50 L 24.333333333333332 50 C 24.333333333333332 50 24 50 24 50.333333333333336 L 24 51.666666666666664 C 24 51.666666666666664 24 52 24.333333333333332 52 L 26 52L 26 54L 24.333333333333332 54 C 24.333333333333332 54 24 54 24 54.333333333333336 L 24 56L 14.333333333333334 56 C 14.333333333333334 56 14 56 14 56.333333333333336 L 14 57.666666666666664 C 14 57.666666666666664 14 58 14.333333333333334 58 L 20 58L 20 61.666666666666664 C 20 61.666666666666664 20 62 20.333333333333332 62 L 21.666666666666668 62 C 21.666666666666668 62 22 62 22 61.666666666666664 L 22 60L 25.666666666666668 60 C 25.666666666666668 60 26 60 26 59.666666666666664 L 26 58L 28 58L 28 60L 26.333333333333332 60 C 26.333333333333332 60 26 60 26 60.333333333333336 L 26 61.666666666666664 C 26 61.666666666666664 26 62 26.333333333333332 62 L 28 62L 28 64L 24.333333333333332 64 C 24.333333333333332 64 24 64 24 64.33333333333333 L 24 68L 22.333333333333332 68 C 22.333333333333332 68 22 68 22 68.33333333333333 L 22 69.66666666666667 C 22 69.66666666666667 22 70 22.333333333333332 70 L 24 70L 24 71.66666666666667 C 24 71.66666666666667 24 72 24.333333333333332 72 L 26 72L 26 76L 24 76L 24 74.33333333333333 C 24 74.33333333333333 24 74 23.666666666666668 74 L 22.333333333333332 74 C 22.333333333333332 74 22 74 22 74.33333333333333 L 22 76L 20 76L 20 74L 21.666666666666668 74 C 21.666666666666668 74 22 74 22 73.66666666666667 L 22 72.33333333333333 C 22 72.33333333333333 22 72 21.666666666666668 72 L 18 72L 18 66L 20 66L 20 67.66666666666667 C 20 67.66666666666667 20 68 20.333333333333332 68 L 21.666666666666668 68 C 21.666666666666668 68 22 68 22 67.66666666666667 L 22 64.33333333333333 C 22 64.33333333333333 22 63.99999999999999 21.666666666666668 63.99999999999999 L 20 64L 20 62.333333333333336 C 20 62.333333333333336 20 62 19.666666666666668 62 L 18 62L 18 60.333333333333336 C 18 60.333333333333336 18 60 17.666666666666668 60 L 6 60L 6 58L 7.666666666666667 58 C 7.666666666666667 58 8 58 8 57.666666666666664 L 8 56L 13.666666666666666 56 C 13.666666666666666 56 14 56 14 55.666666666666664 L 14 54L 17.666666666666668 54 C 17.666666666666668 54 18 54 18 53.666666666666664 L 18 50.333333333333336 C 18 50.333333333333336 18 50 17.666666666666668 50 L 16.333333333333332 50 C 16.333333333333332 50 15.999999999999998 50 15.999999999999998 50.333333333333336 L 16 52L 12.333333333333334 52 C 12.333333333333334 52 12 52 12 52.333333333333336 L 12 54L 10 54L 10 50.333333333333336 C 10 50.333333333333336 10 50 9.666666666666666 50 L 8.333333333333334 50 C 8.333333333333334 50 8 50 8 50.333333333333336 L 8 54L 6 54L 6 52.333333333333336 C 6 52.333333333333336 6 52 5.666666666666667 52 L 4.333333333333333 52 C 4.333333333333333 52 3.9999999999999996 52 3.9999999999999996 52.333333333333336 L 4 60L 2 60L 2 52L 3.6666666666666665 52 C 3.6666666666666665 52 4 52 4 51.666666666666664 L 4 50.333333333333336 C 4 50.333333333333336 4 50 3.6666666666666665 50 L 2 50L 2 48L 3.6666666666666665 48 C 3.6666666666666665 48 4 48 4 47.666666666666664 L 4 46L 7.666666666666667 46 C 7.666666666666667 46 8 46 8 45.666666666666664 L 8 44L 12 44L 12 47.666666666666664 C 12 47.666666666666664 12 48 12.333333333333334 48 L 13.666666666666666 48 C 13.666666666666666 48 14 48 14 47.666666666666664 L 14 46L 15.666666666666666 46 C 15.666666666666666 46 16 46 16 45.666666666666664 L 16 44.333333333333336 C 16 44.333333333333336 16 44 15.666666666666666 44 L 14 44L 14 42.333333333333336 C 14 42.333333333333336 14 42 13.666666666666666 42 L 6.333333333333333 42 C 6.333333333333333 42 6 42 6 42.333333333333336 L 6 44L 4 44L 4 42.333333333333336 C 4 42.333333333333336 4 42 3.6666666666666665 42 L 2 42L 2 40L 4 40L 4 41.666666666666664 C 4 41.666666666666664 4 42 4.333333333333333 42 L 5.666666666666667 42 C 5.666666666666667 42 6 42 6 41.666666666666664 L 6 40L 9.666666666666666 40 C 9.666666666666666 40 10 40 10 39.666666666666664 L 10 38.333333333333336 C 10 38.333333333333336 10 38 9.666666666666666 38 L 8 38L 8 36.333333333333336 C 8 36.333333333333336 8 36 7.666666666666667 36 L 4.333333333333333 36 C 4.333333333333333 36 3.9999999999999996 36 3.9999999999999996 36.333333333333336 L 4 38L 2 38L 2 34L 3.6666666666666665 34 C 3.6666666666666665 34 4 34 4 33.666666666666664 L 4 32.333333333333336 C 4 32.333333333333336 4 32 3.6666666666666665 32 L 2 32L 2 30L 5.666666666666667 30 C 5.666666666666667 30 6 30 6 29.666666666666668 L 6 28L 7.666666666666667 28 C 7.666666666666667 28 8 28 8 27.666666666666668 L 8 26.333333333333332 C 8 26.333333333333332 8 26 7.666666666666667 26 L 6 26L 6 24.333333333333332 C 6 24.333333333333332 6 24 5.666666666666667 24 L 4.333333333333333 24 C 4.333333333333333 24 3.9999999999999996 24 3.9999999999999996 24.333333333333332 L 4 26L 2 26L 2 24L 3.6666666666666665 24 C 3.6666666666666665 24 4 24 4 23.666666666666668 L 4 22.333333333333332 C 4 22.333333333333332 4 22 3.6666666666666665 22 L 2 22L 2 20L 4 20L 4 21.666666666666668 C 4 21.666666666666668 4 22 4.333333333333333 22 L 5.666666666666667 22 C 5.666666666666667 22 6 22 6 21.666666666666668 L 6 18L 12 18L 12 21.666666666666668 C 12 21.666666666666668 12 22 12.333333333333334 22 L 16 22L 16 23.666666666666668 C 16 23.666666666666668 16 24 16.333333333333332 24 L 18 24L 18 29.666666666666668 C 18 29.666666666666668 18 30 18.333333333333332 30 L 19.666666666666668 30 C 19.666666666666668 30 20 30 20 29.666666666666668 L 20 24L 22 24L 22 25.666666666666668 C 22 25.666666666666668 22 26 22.333333333333332 26 L 23.666666666666668 26 C 23.666666666666668 26 24 26 24 25.666666666666668 L 24 20.333333333333332 C 24 20.333333333333332 24 20 23.666666666666668 20 L 20.333333333333332 20 C 20.333333333333332 20 20 20 20 20.333333333333332 L 20 22L 18 22L 18 12L 19.666666666666668 12 C 19.666666666666668 12 20 12 20 11.666666666666666 L 20 8.333333333333334 C 20 8.333333333333334 20 8 19.666666666666668 8 L 18 8L 18 2M 20.333333333333332 6 C 20.333333333333332 6 20 6 20 6.333333333333333 L 20 7.666666666666667 C 20 7.666666666666667 20 8 20.333333333333332 8 L 21.666666666666668 8 C 21.666666666666668 8 22 8 22 7.666666666666667 L 22 6.333333333333333 C 22 6.333333333333333 22 6 21.666666666666668 6 L 20.333333333333332 6M 30.333333333333332 6 C 30.333333333333332 6 30 6 30 6.333333333333333 L 30 7.666666666666667 C 30 7.666666666666667 30 8 30.333333333333332 8 L 31.666666666666668 8 C 31.666666666666668 8 32 8 32 7.666666666666667 L 32 6.333333333333333 C 32 6.333333333333333 32 6 31.666666666666668 6 L 30.333333333333332 6M 34.333333333333336 6 C 34.333333333333336 6 34 6 34 6.333333333333333 L 34 9.666666666666666 C 34 9.666666666666666 34 10 34.333333333333336 10 L 35.666666666666664 10 C 35.666666666666664 10 36 10 36 9.666666666666666 L 36 6.333333333333333 C 36 6.333333333333333 36 6 35.666666666666664 6 L 34.333333333333336 6M 32.333333333333336 10 C 32.333333333333336 10 32 10 32 10.333333333333334 L 32 15.666666666666666 C 32 15.666666666666666 32 16 32.333333333333336 16 L 33.666666666666664 16 C 33.666666666666664 16 34 16 34 15.666666666666666 L 34 14L 36 14L 36 15.666666666666666 C 36 15.666666666666666 36 16 36.333333333333336 16 L 37.666666666666664 16 C 37.666666666666664 16 38 16 38 15.666666666666666 L 38 14L 39.666666666666664 14 C 39.666666666666664 14 40 14 40 13.666666666666666 L 40 12.333333333333334 C 40 12.333333333333334 40 12 39.666666666666664 12 L 38 12L 38 10.333333333333334 C 38 10.333333333333334 38 10 37.666666666666664 10 L 36.333333333333336 10 C 36.333333333333336 10 36 10 36 10.333333333333334 L 36 12L 34 12L 34 10.333333333333334 C 34 10.333333333333334 34 10 33.666666666666664 10 L 32.333333333333336 10M 22.333333333333332 12 C 22.333333333333332 12 22 12 22 12.333333333333334 L 22 13.666666666666666 C 22 13.666666666666666 22 14 22.333333333333332 14 L 23.666666666666668 14 C 23.666666666666668 14 24 14 24 13.666666666666666 L 24 12.333333333333334 C 24 12.333333333333334 24 12 23.666666666666668 12 L 22.333333333333332 12M 26.333333333333332 12 C 26.333333333333332 12 26 12 26 12.333333333333334 L 26 13.666666666666666 C 26 13.666666666666666 26 14 26.333333333333332 14 L 27.666666666666668 14 C 27.666666666666668 14 28 14 28 13.666666666666666 L 28 12.333333333333334 C 28 12.333333333333334 28 12 27.666666666666668 12 L 26.333333333333332 12M 20.333333333333332 14 C 20.333333333333332 14 20 14 20 14.333333333333334 L 20 15.666666666666666 C 20 15.666666666666666 20 16 20.333333333333332 16 L 21.666666666666668 16 C 21.666666666666668 16 22 16 22 15.666666666666666 L 22 14.333333333333334 C 22 14.333333333333334 22 14 21.666666666666668 14 L 20.333333333333332 14M 24.333333333333332 14 C 24.333333333333332 14 24 14 24 14.333333333333334 L 24 15.666666666666666 C 24 15.666666666666666 24 16 24.333333333333332 16 L 25.666666666666668 16 C 25.666666666666668 16 26 16 26 15.666666666666666 L 26 14.333333333333334 C 26 14.333333333333334 26 14 25.666666666666668 14 L 24.333333333333332 14M 28.333333333333332 14 C 28.333333333333332 14 28 14 28 14.333333333333334 L 28 18L 26.333333333333332 18 C 26.333333333333332 18 26 18 26 18.333333333333332 L 26 26L 24.333333333333332 26 C 24.333333333333332 26 24 26 24 26.333333333333332 L 24 27.666666666666668 C 24 27.666666666666668 24 28 24.333333333333332 28 L 26 28L 26 29.666666666666668 C 26 29.666666666666668 26 30 26.333333333333332 30 L 27.666666666666668 30 C 27.666666666666668 30 28 30 28 29.666666666666668 L 28 28L 29.666666666666668 28 C 29.666666666666668 28 30 28 30 27.666666666666668 L 30 24.333333333333332 C 30 24.333333333333332 30 24 29.666666666666668 24 L 28 24L 28 20L 29.666666666666668 20 C 29.666666666666668 20 30 20 30 19.666666666666668 L 30 14.333333333333334 C 30 14.333333333333334 30 14 29.666666666666668 14 L 28.333333333333332 14M 40.333333333333336 14 C 40.333333333333336 14 40 14 40 14.333333333333334 L 40 17.666666666666668 C 40 17.666666666666668 40 18 40.333333333333336 18 L 41.666666666666664 18 C 41.666666666666664 18 42 18 42 17.666666666666668 L 42 14.333333333333334 C 42 14.333333333333334 42 14 41.666666666666664 14 L 40.333333333333336 14M 48.333333333333336 14 C 48.333333333333336 14 48 14 48 14.333333333333334 L 48 15.666666666666666 C 48 15.666666666666666 48 16 48.333333333333336 16 L 49.666666666666664 16 C 49.666666666666664 16 50 16 50 15.666666666666666 L 50 14.333333333333334 C 50 14.333333333333334 50 14 49.666666666666664 14 L 48.333333333333336 14M 22.333333333333332 16 C 22.333333333333332 16 22 16 22 16.333333333333332 L 22 17.666666666666668 C 22 17.666666666666668 22 18 22.333333333333332 18 L 23.666666666666668 18 C 23.666666666666668 18 24 18 24 17.666666666666668 L 24 16.333333333333332 C 24 16.333333333333332 24 15.999999999999998 23.666666666666668 15.999999999999998 L 22.333333333333332 16M 32.333333333333336 18 C 32.333333333333336 18 32 18 32 18.333333333333332 L 32 19.666666666666668 C 32 19.666666666666668 32 20 32.333333333333336 20 L 35.666666666666664 20 C 35.666666666666664 20 36 20 36 19.666666666666668 L 36 18.333333333333332 C 36 18.333333333333332 36 18 35.666666666666664 18 L 32.333333333333336 18M 38.333333333333336 18 C 38.333333333333336 18 38 18 38 18.333333333333332 L 38 19.666666666666668 C 38 19.666666666666668 38 20 38.333333333333336 20 L 39.666666666666664 20 C 39.666666666666664 20 40 20 40 19.666666666666668 L 40 18.333333333333332 C 40 18.333333333333332 40 18 39.666666666666664 18 L 38.333333333333336 18M 30.333333333333332 20 C 30.333333333333332 20 30 20 30 20.333333333333332 L 30 23.666666666666668 C 30 23.666666666666668 30 24 30.333333333333332 24 L 31.666666666666668 24 C 31.666666666666668 24 32 24 32 23.666666666666668 L 32 20.333333333333332 C 32 20.333333333333332 32 20 31.666666666666668 20 L 30.333333333333332 20M 36.333333333333336 20 C 36.333333333333336 20 36 20 36 20.333333333333332 L 36 22L 34.333333333333336 22 C 34.333333333333336 22 34 22 34 22.333333333333332 L 34 23.666666666666668 C 34 23.666666666666668 34 24 34.333333333333336 24 L 36 24L 36 28L 32.333333333333336 28 C 32.333333333333336 28 32 28 32 28.333333333333332 L 32 29.666666666666668 C 32 29.666666666666668 32 30 32.333333333333336 30 L 36 30L 36 32L 32.333333333333336 32 C 32.333333333333336 32 32 32 32 32.333333333333336 L 32 33.666666666666664 C 32 33.666666666666664 32 34 32.333333333333336 34 L 36 34L 36 36L 30 36L 30 32.333333333333336 C 30 32.333333333333336 30 32 29.666666666666668 32 L 26 32L 26 30.333333333333332 C 26 30.333333333333332 26 30 25.666666666666668 30 L 24.333333333333332 30 C 24.333333333333332 30 24 30 24 30.333333333333332 L 24 34L 22 34L 22 30.333333333333332 C 22 30.333333333333332 22 30 21.666666666666668 30 L 20.333333333333332 30 C 20.333333333333332 30 20 30 20 30.333333333333332 L 20 32L 18.333333333333332 32 C 18.333333333333332 32 18 32 18 32.333333333333336 L 18 33.666666666666664 C 18 33.666666666666664 18 34 18.333333333333332 34 L 20 34L 20 35.666666666666664 C 20 35.666666666666664 20 36 20.333333333333332 36 L 25.666666666666668 36 C 25.666666666666668 36 26 36 26 35.666666666666664 L 26 34L 28 34L 28 39.666666666666664 C 28 39.666666666666664 28 40 28.333333333333332 40 L 29.666666666666668 40 C 29.666666666666668 40 30 40 30 39.666666666666664 L 30 38L 34 38L 34 39.666666666666664 C 34 39.666666666666664 34 40 34.333333333333336 40 L 38 40L 38 41.666666666666664 C 38 41.666666666666664 38 42 38.333333333333336 42 L 39.666666666666664 42 C 39.666666666666664 42 40 42 40 41.666666666666664 L 40 38.333333333333336 C 40 38.333333333333336 40 38 39.666666666666664 38 L 38 38L 38 36L 43.666666666666664 36 C 43.666666666666664 36 44 36 44 35.666666666666664 L 44 34.333333333333336 C 44 34.333333333333336 44 34 43.666666666666664 34 L 40 34L 40 32.333333333333336 C 40 32.333333333333336 40 32 39.666666666666664 32 L 38 32L 38 26L 41.666666666666664 26 C 41.666666666666664 26 42 26 42 25.666666666666668 L 42 24.333333333333332 C 42 24.333333333333332 42 24 41.666666666666664 24 L 38 24L 38 20.333333333333332 C 38 20.333333333333332 38 20 37.666666666666664 20 L 36.333333333333336 20M 60.333333333333336 20 C 60.333333333333336 20 60 20 60 20.333333333333332 L 60 22L 56.333333333333336 22 C 56.333333333333336 22 56 22 56 22.333333333333332 L 56 29.666666666666668 C 56 29.666666666666668 56 30 56.333333333333336 30 L 57.666666666666664 30 C 57.666666666666664 30 58 30 58 29.666666666666668 L 58 28L 59.666666666666664 28 C 59.666666666666664 28 60 28 60 27.666666666666668 L 60 26.333333333333332 C 60 26.333333333333332 60 26 59.666666666666664 26 L 58 26L 58 24L 60 24L 60 25.666666666666668 C 60 25.666666666666668 60 26 60.333333333333336 26 L 61.666666666666664 26 C 61.666666666666664 26 62 26 62 25.666666666666668 L 62 20.333333333333332 C 62 20.333333333333332 62 20 61.666666666666664 20 L 60.333333333333336 20M 6.333333333333333 22 C 6.333333333333333 22 6 22 6 22.333333333333332 L 6 23.666666666666668 C 6 23.666666666666668 6 24 6.333333333333333 24 L 8 24L 8 25.666666666666668 C 8 25.666666666666668 8 26 8.333333333333334 26 L 9.666666666666666 26 C 9.666666666666666 26 10 26 10 25.666666666666668 L 10 22.333333333333332 C 10 22.333333333333332 10 22 9.666666666666666 22 L 6.333333333333333 22M 14.333333333333334 24 C 14.333333333333334 24 14 24 14 24.333333333333332 L 14 25.666666666666668 C 14 25.666666666666668 14 26 14.333333333333334 26 L 15.666666666666666 26 C 15.666666666666666 26 16 26 16 25.666666666666668 L 16 24.333333333333332 C 16 24.333333333333332 16 24 15.666666666666666 24 L 14.333333333333334 24M 32.333333333333336 24 C 32.333333333333336 24 32 24 32 24.333333333333332 L 32 25.666666666666668 C 32 25.666666666666668 32 26 32.333333333333336 26 L 33.666666666666664 26 C 33.666666666666664 26 34 26 34 25.666666666666668 L 34 24.333333333333332 C 34 24.333333333333332 34 24 33.666666666666664 24 L 32.333333333333336 24M 64.33333333333333 24 C 64.33333333333333 24 63.99999999999999 24 63.99999999999999 24.333333333333332 L 64 27.666666666666668 C 64 27.666666666666668 64 28 64.33333333333333 28 L 65.66666666666667 28 C 65.66666666666667 28 66 28 66 27.666666666666668 L 66 24.333333333333332 C 66 24.333333333333332 66 24 65.66666666666667 24 L 64.33333333333333 24M 10.333333333333334 26 C 10.333333333333334 26 10 26 10 26.333333333333332 L 10 28L 8.333333333333334 28 C 8.333333333333334 28 8 28 8 28.333333333333332 L 8 29.666666666666668 C 8 29.666666666666668 8 30 8.333333333333334 30 L 15.666666666666666 30 C 15.666666666666666 30 16 30 16 29.666666666666668 L 16 28.333333333333332 C 16 28.333333333333332 16 28 15.666666666666666 28 L 12 28L 12 26.333333333333332 C 12 26.333333333333332 12 26 11.666666666666666 26 L 10.333333333333334 26M 42.333333333333336 26 C 42.333333333333336 26 42 26 42 26.333333333333332 L 42 27.666666666666668 C 42 27.666666666666668 42 28 42.333333333333336 28 L 43.666666666666664 28 C 43.666666666666664 28 44 28 44 27.666666666666668 L 44 26.333333333333332 C 44 26.333333333333332 44 26 43.666666666666664 26 L 42.333333333333336 26M 22.333333333333332 28 C 22.333333333333332 28 22 28 22 28.333333333333332 L 22 29.666666666666668 C 22 29.666666666666668 22 30 22.333333333333332 30 L 23.666666666666668 30 C 23.666666666666668 30 24 30 24 29.666666666666668 L 24 28.333333333333332 C 24 28.333333333333332 24 28 23.666666666666668 28 L 22.333333333333332 28M 62.333333333333336 28 C 62.333333333333336 28 62 28 62 28.333333333333332 L 62 29.666666666666668 C 62 29.666666666666668 62 30 62.333333333333336 30 L 63.666666666666664 30 C 63.666666666666664 30 64 30 64 29.666666666666668 L 64 28.333333333333332 C 64 28.333333333333332 64 28 63.666666666666664 28 L 62.333333333333336 28M 66.33333333333333 28 C 66.33333333333333 28 66 28 66 28.333333333333332 L 66 29.666666666666668 C 66 29.666666666666668 66 30 66.33333333333333 30 L 67.66666666666667 30 C 67.66666666666667 30 68 30 68 29.666666666666668 L 68 28.333333333333332 C 68 28.333333333333332 68 28 67.66666666666667 28 L 66.33333333333333 28M 16.333333333333332 30 C 16.333333333333332 30 15.999999999999998 30 15.999999999999998 30.333333333333332 L 16 31.666666666666668 C 16 31.666666666666668 16 32 16.333333333333332 32 L 17.666666666666668 32 C 17.666666666666668 32 18 32 18 31.666666666666668 L 18 30.333333333333332 C 18 30.333333333333332 18 30 17.666666666666668 30 L 16.333333333333332 30M 30.333333333333332 30 C 30.333333333333332 30 30 30 30 30.333333333333332 L 30 31.666666666666668 C 30 31.666666666666668 30 32 30.333333333333332 32 L 31.666666666666668 32 C 31.666666666666668 32 32 32 32 31.666666666666668 L 32 30.333333333333332 C 32 30.333333333333332 32 30 31.666666666666668 30 L 30.333333333333332 30M 40.333333333333336 30 C 40.333333333333336 30 40 30 40 30.333333333333332 L 40 31.666666666666668 C 40 31.666666666666668 40 32 40.333333333333336 32 L 41.666666666666664 32 C 41.666666666666664 32 42 32 42 31.666666666666668 L 42 30.333333333333332 C 42 30.333333333333332 42 30 41.666666666666664 30 L 40.333333333333336 30M 48.333333333333336 30 C 48.333333333333336 30 48 30 48 30.333333333333332 L 48 31.666666666666668 C 48 31.666666666666668 48 32 48.333333333333336 32 L 49.666666666666664 32 C 49.666666666666664 32 50 32 50 31.666666666666668 L 50 30.333333333333332 C 50 30.333333333333332 50 30 49.666666666666664 30 L 48.333333333333336 30M 60.333333333333336 30 C 60.333333333333336 30 60 30 60 30.333333333333332 L 60 31.666666666666668 C 60 31.666666666666668 60 32 60.333333333333336 32 L 61.666666666666664 32 C 61.666666666666664 32 62 32 62 31.666666666666668 L 62 30.333333333333332 C 62 30.333333333333332 62 30 61.666666666666664 30 L 60.333333333333336 30M 6.333333333333333 32 C 6.333333333333333 32 6 32 6 32.333333333333336 L 6 33.666666666666664 C 6 33.666666666666664 6 34 6.333333333333333 34 L 8 34L 8 35.666666666666664 C 8 35.666666666666664 8 36 8.333333333333334 36 L 10 36L 10 37.666666666666664 C 10 37.666666666666664 10 38 10.333333333333334 38 L 11.666666666666666 38 C 11.666666666666666 38 12 38 12 37.666666666666664 L 12 34.333333333333336 C 12 34.333333333333336 12 34 11.666666666666666 34 L 10 34L 10 32.333333333333336 C 10 32.333333333333336 10 32 9.666666666666666 32 L 6.333333333333333 32M 14.333333333333334 32 C 14.333333333333334 32 14 32 14 32.333333333333336 L 14 33.666666666666664 C 14 33.666666666666664 14 34 14.333333333333334 34 L 15.666666666666666 34 C 15.666666666666666 34 16 34 16 33.666666666666664 L 16 32.333333333333336 C 16 32.333333333333336 16 32 15.666666666666666 32 L 14.333333333333334 32M 46.333333333333336 32 C 46.333333333333336 32 46 32 46 32.333333333333336 L 46 35.666666666666664 C 46 35.666666666666664 46 36 46.333333333333336 36 L 47.666666666666664 36 C 47.666666666666664 36 48 36 48 35.666666666666664 L 48 32.333333333333336 C 48 32.333333333333336 48 32 47.666666666666664 32 L 46.333333333333336 32M 52.333333333333336 32 C 52.333333333333336 32 52 32 52 32.333333333333336 L 52 33.666666666666664 C 52 33.666666666666664 52 34 52.333333333333336 34 L 53.666666666666664 34 C 53.666666666666664 34 54 34 54 33.666666666666664 L 54 32.333333333333336 C 54 32.333333333333336 54 32 53.666666666666664 32 L 52.333333333333336 32M 56.333333333333336 32 C 56.333333333333336 32 56 32 56 32.333333333333336 L 56 36L 54.333333333333336 36 C 54.333333333333336 36 54 36 54 36.333333333333336 L 54 38L 52 38L 52 34.333333333333336 C 52 34.333333333333336 52 34 51.666666666666664 34 L 50.333333333333336 34 C 50.333333333333336 34 50 34 50 34.333333333333336 L 50 36L 48.333333333333336 36 C 48.333333333333336 36 48 36 48 36.333333333333336 L 48 37.666666666666664 C 48 37.666666666666664 48 38 48.333333333333336 38 L 50 38L 50 39.666666666666664 C 50 39.666666666666664 50 40 50.333333333333336 40 L 52 40L 52 41.666666666666664 C 52 41.666666666666664 52 42 52.333333333333336 42 L 53.666666666666664 42 C 53.666666666666664 42 54 42 54 41.666666666666664 L 54 40L 55.666666666666664 40 C 55.666666666666664 40 56 40 56 39.666666666666664 L 56 38L 57.666666666666664 38 C 57.666666666666664 38 58 38 58 37.666666666666664 L 58 36L 59.666666666666664 36 C 59.666666666666664 36 60 36 60 35.666666666666664 L 60 34.333333333333336 C 60 34.333333333333336 60 34 59.666666666666664 34 L 58 34L 58 32.333333333333336 C 58 32.333333333333336 58 32 57.666666666666664 32 L 56.333333333333336 32M 62.333333333333336 32 C 62.333333333333336 32 62 32 62 32.333333333333336 L 62 33.666666666666664 C 62 33.666666666666664 62 34 62.333333333333336 34 L 63.666666666666664 34 C 63.666666666666664 34 64 34 64 33.666666666666664 L 64 32.333333333333336 C 64 32.333333333333336 64 32 63.666666666666664 32 L 62.333333333333336 32M 64.33333333333333 34 C 64.33333333333333 34 63.99999999999999 34 63.99999999999999 34.333333333333336 L 64 35.666666666666664 C 64 35.666666666666664 64 36 64.33333333333333 36 L 65.66666666666667 36 C 65.66666666666667 36 66 36 66 35.666666666666664 L 66 34.333333333333336 C 66 34.333333333333336 66 34 65.66666666666667 34 L 64.33333333333333 34M 14.333333333333334 36 C 14.333333333333334 36 14 36 14 36.333333333333336 L 14 37.666666666666664 C 14 37.666666666666664 14 38 14.333333333333334 38 L 15.666666666666666 38 C 15.666666666666666 38 16 38 16 37.666666666666664 L 16 36.333333333333336 C 16 36.333333333333336 16 36 15.666666666666666 36 L 14.333333333333334 36M 18.333333333333332 36 C 18.333333333333332 36 18 36 18 36.333333333333336 L 18 37.666666666666664 C 18 37.666666666666664 18 38 18.333333333333332 38 L 19.666666666666668 38 C 19.666666666666668 38 20 38 20 37.666666666666664 L 20 36.333333333333336 C 20 36.333333333333336 20 36 19.666666666666668 36 L 18.333333333333332 36M 60.333333333333336 36 C 60.333333333333336 36 60 36 60 36.333333333333336 L 60 37.666666666666664 C 60 37.666666666666664 60 38 60.333333333333336 38 L 62 38L 62 39.666666666666664 C 62 39.666666666666664 62 40 62.333333333333336 40 L 63.666666666666664 40 C 63.666666666666664 40 64 40 64 39.666666666666664 L 64 36.333333333333336 C 64 36.333333333333336 64 36 63.666666666666664 36 L 60.333333333333336 36M 12.333333333333334 38 C 12.333333333333334 38 12 38 12 38.333333333333336 L 12 39.666666666666664 C 12 39.666666666666664 12 40 12.333333333333334 40 L 13.666666666666666 40 C 13.666666666666666 40 14 40 14 39.666666666666664 L 14 38.333333333333336 C 14 38.333333333333336 14 38 13.666666666666666 38 L 12.333333333333334 38M 20.333333333333332 38 C 20.333333333333332 38 20 38 20 38.333333333333336 L 20 39.666666666666664 C 20 39.666666666666664 20 40 20.333333333333332 40 L 21.666666666666668 40 C 21.666666666666668 40 22 40 22 39.666666666666664 L 22 38.333333333333336 C 22 38.333333333333336 22 38 21.666666666666668 38 L 20.333333333333332 38M 24.333333333333332 38 C 24.333333333333332 38 24 38 24 38.333333333333336 L 24 39.666666666666664 C 24 39.666666666666664 24 40 24.333333333333332 40 L 25.666666666666668 40 C 25.666666666666668 40 26 40 26 39.666666666666664 L 26 38.333333333333336 C 26 38.333333333333336 26 38 25.666666666666668 38 L 24.333333333333332 38M 14.333333333333334 40 C 14.333333333333334 40 14 40 14 40.333333333333336 L 14 41.666666666666664 C 14 41.666666666666664 14 42 14.333333333333334 42 L 15.666666666666666 42 C 15.666666666666666 42 16 42 16 41.666666666666664 L 16 40.333333333333336 C 16 40.333333333333336 16 40 15.666666666666666 40 L 14.333333333333334 40M 22.333333333333332 40 C 22.333333333333332 40 22 40 22 40.333333333333336 L 22 41.666666666666664 C 22 41.666666666666664 22 42 22.333333333333332 42 L 23.666666666666668 42 C 23.666666666666668 42 24 42 24 41.666666666666664 L 24 40.333333333333336 C 24 40.333333333333336 24 40 23.666666666666668 40 L 22.333333333333332 40M 32.333333333333336 40 C 32.333333333333336 40 32 40 32 40.333333333333336 L 32 42L 30.333333333333332 42 C 30.333333333333332 42 30 42 30 42.333333333333336 L 30 47.666666666666664 C 30 47.666666666666664 30 48 30.333333333333332 48 L 31.666666666666668 48 C 31.666666666666668 48 32 48 32 47.666666666666664 L 32 44L 33.666666666666664 44 C 33.666666666666664 44 34 44 34 43.666666666666664 L 34 40.333333333333336 C 34 40.333333333333336 34 40 33.666666666666664 40 L 32.333333333333336 40M 42.333333333333336 40 C 42.333333333333336 40 42 40 42 40.333333333333336 L 42 42L 40.333333333333336 42 C 40.333333333333336 42 40 42 40 42.333333333333336 L 40 43.666666666666664 C 40 43.666666666666664 40 44 40.333333333333336 44 L 42 44L 42 46L 40.333333333333336 46 C 40.333333333333336 46 40 46 40 46.333333333333336 L 40 48L 38.333333333333336 48 C 38.333333333333336 48 38 48 38 48.333333333333336 L 38 49.666666666666664 C 38 49.666666666666664 38 50 38.333333333333336 50 L 40 50L 40 55.666666666666664 C 40 55.666666666666664 40 56 40.333333333333336 56 L 43.666666666666664 56 C 43.666666666666664 56 44 56 44 55.666666666666664 L 44 54L 55.666666666666664 54 C 55.666666666666664 54 56 54 56 53.666666666666664 L 56 52.333333333333336 C 56 52.333333333333336 56 52 55.666666666666664 52 L 54 52L 54 50.333333333333336 C 54 50.333333333333336 54 50 53.666666666666664 50 L 52.333333333333336 50 C 52.333333333333336 50 52 50 52 50.333333333333336 L 52 52L 46 52L 46 50.333333333333336 C 46 50.333333333333336 46 50 45.666666666666664 50 L 42 50L 42 48L 45.666666666666664 48 C 45.666666666666664 48 46 48 46 47.666666666666664 L 46 46.333333333333336 C 46 46.333333333333336 46 46 45.666666666666664 46 L 44 46L 44 40.333333333333336 C 44 40.333333333333336 44 40 43.666666666666664 40 L 42.333333333333336 40M 48.333333333333336 40 C 48.333333333333336 40 48 40 48 40.333333333333336 L 48 41.666666666666664 C 48 41.666666666666664 48 42 48.333333333333336 42 L 49.666666666666664 42 C 49.666666666666664 42 50 42 50 41.666666666666664 L 50 40.333333333333336 C 50 40.333333333333336 50 40 49.666666666666664 40 L 48.333333333333336 40M 18.333333333333332 42 C 18.333333333333332 42 18 42 18 42.333333333333336 L 18 43.666666666666664 C 18 43.666666666666664 18 44 18.333333333333332 44 L 19.666666666666668 44 C 19.666666666666668 44 20 44 20 43.666666666666664 L 20 42.333333333333336 C 20 42.333333333333336 20 42 19.666666666666668 42 L 18.333333333333332 42M 24.333333333333332 42 C 24.333333333333332 42 24 42 24 42.333333333333336 L 24 45.666666666666664 C 24 45.666666666666664 24 46 24.333333333333332 46 L 25.666666666666668 46 C 25.666666666666668 46 26 46 26 45.666666666666664 L 26 44L 27.666666666666668 44 C 27.666666666666668 44 28 44 28 43.666666666666664 L 28 42.333333333333336 C 28 42.333333333333336 28 42 27.666666666666668 42 L 24.333333333333332 42M 50.333333333333336 42 C 50.333333333333336 42 50 42 50 42.333333333333336 L 50 43.666666666666664 C 50 43.666666666666664 50 44 50.333333333333336 44 L 51.666666666666664 44 C 51.666666666666664 44 52 44 52 43.666666666666664 L 52 42.333333333333336 C 52 42.333333333333336 52 42 51.666666666666664 42 L 50.333333333333336 42M 20.333333333333332 44 C 20.333333333333332 44 20 44 20 44.333333333333336 L 20 45.666666666666664 C 20 45.666666666666664 20 46 20.333333333333332 46 L 21.666666666666668 46 C 21.666666666666668 46 22 46 22 45.666666666666664 L 22 44.333333333333336 C 22 44.333333333333336 22 44 21.666666666666668 44 L 20.333333333333332 44M 38.333333333333336 44 C 38.333333333333336 44 38 44 38 44.333333333333336 L 38 45.666666666666664 C 38 45.666666666666664 38 46 38.333333333333336 46 L 39.666666666666664 46 C 39.666666666666664 46 40 46 40 45.666666666666664 L 40 44.333333333333336 C 40 44.333333333333336 40 44 39.666666666666664 44 L 38.333333333333336 44M 46.333333333333336 44 C 46.333333333333336 44 46 44 46 44.333333333333336 L 46 45.666666666666664 C 46 45.666666666666664 46 46 46.333333333333336 46 L 47.666666666666664 46 C 47.666666666666664 46 48 46 48 45.666666666666664 L 48 44.333333333333336 C 48 44.333333333333336 48 44 47.666666666666664 44 L 46.333333333333336 44M 16.333333333333332 46 C 16.333333333333332 46 15.999999999999998 46 15.999999999999998 46.333333333333336 L 16 47.666666666666664 C 16 47.666666666666664 16 48 16.333333333333332 48 L 17.666666666666668 48 C 17.666666666666668 48 18 48 18 47.666666666666664 L 18 46.333333333333336 C 18 46.333333333333336 18 46 17.666666666666668 46 L 16.333333333333332 46M 26.333333333333332 46 C 26.333333333333332 46 26 46 26 46.333333333333336 L 26 47.666666666666664 C 26 47.666666666666664 26 48 26.333333333333332 48 L 27.666666666666668 48 C 27.666666666666668 48 28 48 28 47.666666666666664 L 28 46.333333333333336 C 28 46.333333333333336 28 46 27.666666666666668 46 L 26.333333333333332 46M 34.333333333333336 46 C 34.333333333333336 46 34 46 34 46.333333333333336 L 34 47.666666666666664 C 34 47.666666666666664 34 48 34.333333333333336 48 L 37.666666666666664 48 C 37.666666666666664 48 38 48 38 47.666666666666664 L 38 46.333333333333336 C 38 46.333333333333336 38 46 37.666666666666664 46 L 34.333333333333336 46M 48.333333333333336 46 C 48.333333333333336 46 48 46 48 46.333333333333336 L 48 48L 46.333333333333336 48 C 46.333333333333336 48 46 48 46 48.333333333333336 L 46 49.666666666666664 C 46 49.666666666666664 46 50 46.333333333333336 50 L 49.666666666666664 50 C 49.666666666666664 50 50 50 50 49.666666666666664 L 50 48L 51.666666666666664 48 C 51.666666666666664 48 52 48 52 47.666666666666664 L 52 46.333333333333336 C 52 46.333333333333336 52 46 51.666666666666664 46 L 48.333333333333336 46M 4.333333333333333 48 C 4.333333333333333 48 3.9999999999999996 48 3.9999999999999996 48.333333333333336 L 4 49.666666666666664 C 4 49.666666666666664 4 50 4.333333333333333 50 L 5.666666666666667 50 C 5.666666666666667 50 6 50 6 49.666666666666664 L 6 48.333333333333336 C 6 48.333333333333336 6 48 5.666666666666667 48 L 4.333333333333333 48M 14.333333333333334 48 C 14.333333333333334 48 14 48 14 48.333333333333336 L 14 49.666666666666664 C 14 49.666666666666664 14 50 14.333333333333334 50 L 15.666666666666666 50 C 15.666666666666666 50 16 50 16 49.666666666666664 L 16 48.333333333333336 C 16 48.333333333333336 16 48 15.666666666666666 48 L 14.333333333333334 48M 18.333333333333332 48 C 18.333333333333332 48 18 48 18 48.333333333333336 L 18 49.666666666666664 C 18 49.666666666666664 18 50 18.333333333333332 50 L 23.666666666666668 50 C 23.666666666666668 50 24 50 24 49.666666666666664 L 24 48.333333333333336 C 24 48.333333333333336 24 48 23.666666666666668 48 L 18.333333333333332 48M 32.333333333333336 48 C 32.333333333333336 48 32 48 32 48.333333333333336 L 32 49.666666666666664 C 32 49.666666666666664 32 50 32.333333333333336 50 L 33.666666666666664 50 C 33.666666666666664 50 34 50 34 49.666666666666664 L 34 48.333333333333336 C 34 48.333333333333336 34 48 33.666666666666664 48 L 32.333333333333336 48M 30.333333333333332 50 C 30.333333333333332 50 30 50 30 50.333333333333336 L 30 53.666666666666664 C 30 53.666666666666664 30 54 30.333333333333332 54 L 33.666666666666664 54 C 33.666666666666664 54 34 54 34 53.666666666666664 L 34 52.333333333333336 C 34 52.333333333333336 34 52 33.666666666666664 52 L 32 52L 32 50.333333333333336 C 32 50.333333333333336 32 50 31.666666666666668 50 L 30.333333333333332 50M 20.333333333333332 52 C 20.333333333333332 52 20 52 20 52.333333333333336 L 20 53.666666666666664 C 20 53.666666666666664 20 54 20.333333333333332 54 L 23.666666666666668 54 C 23.666666666666668 54 24 54 24 53.666666666666664 L 24 52.333333333333336 C 24 52.333333333333336 24 52 23.666666666666668 52 L 20.333333333333332 52M 58.333333333333336 52 C 58.333333333333336 52 58 52 58 52.333333333333336 L 58 53.666666666666664 C 58 53.666666666666664 58 54 58.333333333333336 54 L 60 54L 60 55.666666666666664 C 60 55.666666666666664 60 56 60.333333333333336 56 L 61.666666666666664 56 C 61.666666666666664 56 62 56 62 55.666666666666664 L 62 52.333333333333336 C 62 52.333333333333336 62 52 61.666666666666664 52 L 58.333333333333336 52M 66.33333333333333 52 C 66.33333333333333 52 66 52 66 52.333333333333336 L 66 55.666666666666664 C 66 55.666666666666664 66 56 66.33333333333333 56 L 67.66666666666667 56 C 67.66666666666667 56 68 56 68 55.666666666666664 L 68 52.333333333333336 C 68 52.333333333333336 68 52 67.66666666666667 52 L 66.33333333333333 52M 34.333333333333336 54 C 34.333333333333336 54 34 54 34 54.333333333333336 L 34 56L 32.333333333333336 56 C 32.333333333333336 56 32 56 32 56.333333333333336 L 32 57.666666666666664 C 32 57.666666666666664 32 58 32.333333333333336 58 L 34 58L 34 62L 32.333333333333336 62 C 32.333333333333336 62 32 62 32 62.333333333333336 L 32 63.666666666666664 C 32 63.666666666666664 32 64 32.333333333333336 64 L 37.666666666666664 64 C 37.666666666666664 64 38 64 38 63.666666666666664 L 38 62.333333333333336 C 38 62.333333333333336 38 62 37.666666666666664 62 L 36 62L 36 58L 37.666666666666664 58 C 37.666666666666664 58 38 58 38 57.666666666666664 L 38 56.333333333333336 C 38 56.333333333333336 38 56 37.666666666666664 56 L 36 56L 36 54.333333333333336 C 36 54.333333333333336 36 54 35.666666666666664 54 L 34.333333333333336 54M 46.333333333333336 56 C 46.333333333333336 56 46 56 46 56.333333333333336 L 46 57.666666666666664 C 46 57.666666666666664 46 58 46.333333333333336 58 L 47.666666666666664 58 C 47.666666666666664 58 48 58 48 57.666666666666664 L 48 56.333333333333336 C 48 56.333333333333336 48 56 47.666666666666664 56 L 46.333333333333336 56M 50.333333333333336 56 C 50.333333333333336 56 50 56 50 56.333333333333336 L 50 57.666666666666664 C 50 57.666666666666664 50 58 50.333333333333336 58 L 53.666666666666664 58 C 53.666666666666664 58 54 58 54 57.666666666666664 L 54 56.333333333333336 C 54 56.333333333333336 54 56 53.666666666666664 56 L 50.333333333333336 56M 58.333333333333336 56 C 58.333333333333336 56 58 56 58 56.333333333333336 L 58 57.666666666666664 C 58 57.666666666666664 58 58 58.333333333333336 58 L 59.666666666666664 58 C 59.666666666666664 58 60 58 60 57.666666666666664 L 60 56.333333333333336 C 60 56.333333333333336 60 56 59.666666666666664 56 L 58.333333333333336 56M 62.333333333333336 56 C 62.333333333333336 56 62 56 62 56.333333333333336 L 62 57.666666666666664 C 62 57.666666666666664 62 58 62.333333333333336 58 L 65.66666666666667 58 C 65.66666666666667 58 66 58 66 57.666666666666664 L 66 56.333333333333336 C 66 56.333333333333336 66 56 65.66666666666667 56 L 62.333333333333336 56M 46.333333333333336 60 C 46.333333333333336 60 46 60 46 60.333333333333336 L 46 62L 44.333333333333336 62 C 44.333333333333336 62 44 62 44 62.333333333333336 L 44 63.666666666666664 C 44 63.666666666666664 44 64 44.333333333333336 64 L 49.666666666666664 64 C 49.666666666666664 64 50 64 50 63.666666666666664 L 50 62.333333333333336 C 50 62.333333333333336 50 62 49.666666666666664 62 L 48 62L 48 60.333333333333336 C 48 60.333333333333336 48 60 47.666666666666664 60 L 46.333333333333336 60M 50.333333333333336 60 C 50.333333333333336 60 50 60 50 60.333333333333336 L 50 61.666666666666664 C 50 61.666666666666664 50 62 50.333333333333336 62 L 51.666666666666664 62 C 51.666666666666664 62 52 62 52 61.666666666666664 L 52 60.333333333333336 C 52 60.333333333333336 52 60 51.666666666666664 60 L 50.333333333333336 60M 60.333333333333336 60 C 60.333333333333336 60 60 60 60 60.333333333333336 L 60 65.66666666666667 C 60 65.66666666666667 60 66 60.333333333333336 66 L 65.66666666666667 66 C 65.66666666666667 66 66 66 66 65.66666666666667 L 66 60.333333333333336 C 66 60.333333333333336 66 60 65.66666666666667 60 L 60.333333333333336 60M 54.333333333333336 62 C 54.333333333333336 62 54 62 54 62.333333333333336 L 54 63.666666666666664 C 54 63.666666666666664 54 64 54.333333333333336 64 L 56 64L 56 65.66666666666667 C 56 65.66666666666667 56 66 56.333333333333336 66 L 57.666666666666664 66 C 57.666666666666664 66 58 66 58 65.66666666666667 L 58 62.333333333333336 C 58 62.333333333333336 58 62 57.666666666666664 62 L 54.333333333333336 62M 50.333333333333336 64 C 50.333333333333336 64 50 64 50 64.33333333333333 L 50 67.66666666666667 C 50 67.66666666666667 50 68 50.333333333333336 68 L 51.666666666666664 68 C 51.666666666666664 68 52 68 52 67.66666666666667 L 52 66L 53.666666666666664 66 C 53.666666666666664 66 54 66 54 65.66666666666667 L 54 64.33333333333333 C 54 64.33333333333333 54 63.99999999999999 53.666666666666664 63.99999999999999 L 50.333333333333336 64 z" fill="url(#g_color2)" stroke-width="0"/><path id="p2" class="q-sq" d="M 2 62L 16 62L 16 76L 2 76L 2 62M 4.333333333333333 64 C 4.333333333333333 64 3.9999999999999996 64 3.9999999999999996 64.33333333333333 L 4 73.66666666666667 C 4 73.66666666666667 4 74 4.333333333333333 74 L 13.666666666666666 74 C 13.666666666666666 74 14 74 14 73.66666666666667 L 14 64.33333333333333 C 14 64.33333333333333 14 63.99999999999999 13.666666666666666 63.99999999999999 L 4.333333333333333 64 z" stroke-width="0" fill="url(#g_color6)"/><path id="p3" class="q-sqf" d="M 6 6L 12 6L 12 12L 6 12L 6 6 z" stroke-width="0" fill="url(#g_color5)"/><path id="p4" class="q-sqf" d="M 6 66L 12 66L 12 72L 6 72L 6 66 z" stroke-width="0" fill="url(#g_color5)"/><path id="p5" class="q-one" d="M 14 18L 16 18L 16 20L 14 20L 14 18 z" stroke-width="0" fill="url(#g_color4)"/><path id="p6" d="M 38 70L 40 70L 40 71.66666666666667 C 40 71.66666666666667 40 72 40.333333333333336 72 L 41.666666666666664 72 C 41.666666666666664 72 42 72 42 71.66666666666667 L 42 70L 44 70L 44 73.66666666666667 C 44 73.66666666666667 44 74 44.333333333333336 74 L 48 74L 48 76L 44 76L 44 74.33333333333333 C 44 74.33333333333333 44 74 43.666666666666664 74 L 40.333333333333336 74 C 40.333333333333336 74 40 74 40 74.33333333333333 L 40 76L 34 76L 34 74L 37.666666666666664 74 C 37.666666666666664 74 38 74 38 73.66666666666667 L 38 70 z" fill="url(#g_color2)" stroke-width="0"/><path id="p7" d="M 42 2L 44 2L 44 3.6666666666666665 C 44 3.6666666666666665 44 4 44.333333333333336 4 L 48 4L 48 6L 44 6L 44 4.333333333333333 C 44 4.333333333333333 44 3.9999999999999996 43.666666666666664 3.9999999999999996 L 42 4L 42 2 z" fill="url(#g_color2)" stroke-width="0"/><path id="p8" class="q-one" d="M 46 70L 48 70L 48 72L 46 72L 46 70 z" stroke-width="0" fill="url(#g_color4)"/><path id="p9" d="M 50 2L 54 2L 54 3.6666666666666665 C 54 3.6666666666666665 54 4 54.333333333333336 4 L 57.666666666666664 4 C 57.666666666666664 4 58 4 58 3.6666666666666665 L 58 2L 60 2L 60 8L 58 8L 58 6.333333333333333 C 58 6.333333333333333 58 6 57.666666666666664 6 L 50 6L 50 2 z" fill="url(#g_color2)" stroke-width="0"/><path id="p10" d="M 50 72L 52 72L 52 73.66666666666667 C 52 73.66666666666667 52 74 52.333333333333336 74 L 54 74L 54 76L 50 76L 50 72 z" fill="url(#g_color2)" stroke-width="0"/><path id="p11" class="q-one" d="M 60 46L 62 46L 62 48L 60 48L 60 46 z" stroke-width="0" fill="url(#g_color4)"/><path id="p12" class="q-sq" d="M 62 2L 76 2L 76 16L 62 16L 62 2M 64.33333333333333 4 C 64.33333333333333 4 63.99999999999999 4 63.99999999999999 4.333333333333333 L 64 13.666666666666666 C 64 13.666666666666666 64 14 64.33333333333333 14 L 73.66666666666667 14 C 73.66666666666667 14 74 14 74 13.666666666666666 L 74 4.333333333333333 C 74 4.333333333333333 74 3.9999999999999996 73.66666666666667 3.9999999999999996 L 64.33333333333333 4 z" stroke-width="0" fill="url(#g_color6)"/><path id="p13" class="q-one" d="M 62 62L 64 62L 64 64L 62 64L 62 62 z" stroke-width="0" fill="url(#g_color4)"/><path id="p14" class="q-sqf" d="M 66 6L 72 6L 72 12L 66 12L 66 6 z" stroke-width="0" fill="url(#g_color5)"/><path id="p15" d="M 70 18L 76 18L 76 20L 70 20L 70 18M 68 20L 70 20L 70 22L 68 22L 68 20 z" fill="url(#g_color2)" stroke-width="0"/><path id="p16" class="q-one" d="M 74 50L 76 50L 76 52L 74 52L 74 50 z" stroke-width="0" fill="url(#g_color4)"/><g id="qr-images"/></g></svg>